<mxfile host="65bd71144e" scale="3" border="0">
    <diagram id="U2TYe7lUmxYlfvzETi96" name="Page-1">
        <mxGraphModel dx="830" dy="541" grid="1" gridSize="10" guides="1" tooltips="1" connect="1" arrows="1" fold="1" page="1" pageScale="1" pageWidth="850" pageHeight="1100" math="0" shadow="0">
            <root>
                <mxCell id="0"/>
                <mxCell id="1" style="" parent="0"/>
                <mxCell id="15" style="edgeStyle=none;html=1;exitX=1;exitY=0.5;exitDx=0;exitDy=0;entryX=0;entryY=0.5;entryDx=0;entryDy=0;fontFamily=Verdana;fontSize=13;endArrow=block;endFill=1;strokeWidth=3;fontColor=#006633;strokeColor=#B3B3B3;jumpSize=6;targetPerimeterSpacing=0;endSize=8;jumpStyle=none;" parent="1" source="2" target="14" edge="1">
                    <mxGeometry relative="1" as="geometry"/>
                </mxCell>
                <mxCell id="2" value="Client" style="rounded=1;whiteSpace=wrap;html=1;labelPosition=center;verticalLabelPosition=top;align=left;verticalAlign=bottom;fontFamily=Verdana;fontSize=15;arcSize=50;absoluteArcSize=1;container=0;fontStyle=1;fontColor=#003366;strokeColor=#003366;strokeWidth=3;" parent="1" vertex="1">
                    <mxGeometry x="40" y="190" width="150" height="180" as="geometry"/>
                </mxCell>
                <mxCell id="14" value="API&lt;br&gt;Gateway" style="rounded=1;whiteSpace=wrap;html=1;fontFamily=Verdana;fontSize=15;strokeWidth=1;fillColor=#003366;fontColor=#FFFFFF;strokeColor=none;" parent="1" vertex="1">
                    <mxGeometry x="240" y="221.50000000000003" width="120" height="117" as="geometry"/>
                </mxCell>
                <mxCell id="16" value="" style="group;fontColor=#003366;fillColor=default;labelBackgroundColor=none;" parent="1" vertex="1" connectable="0">
                    <mxGeometry x="60.629999999999995" y="242.16216216216213" width="108.75" height="97.29729729729729" as="geometry"/>
                </mxCell>
                <mxCell id="3" value="Web Browser" style="sketch=0;pointerEvents=1;shadow=0;dashed=0;html=1;strokeColor=none;fillColor=#505050;labelPosition=center;verticalLabelPosition=top;verticalAlign=bottom;outlineConnect=0;align=center;shape=mxgraph.office.devices.lcd_monitor;fontFamily=Verdana;fontSize=13;container=0;fontColor=#003366;" parent="16" vertex="1">
                    <mxGeometry width="108.75" height="97.29729729729728" as="geometry"/>
                </mxCell>
                <mxCell id="8" value="" style="sketch=0;pointerEvents=1;shadow=0;dashed=0;html=1;strokeColor=none;fillColor=#434445;aspect=fixed;labelPosition=center;verticalLabelPosition=bottom;verticalAlign=top;align=center;outlineConnect=0;shape=mxgraph.vvd.web_browser;fontFamily=Verdana;fontSize=15;container=0;" parent="16" vertex="1">
                    <mxGeometry x="19.17" y="10.810810810810835" width="70.42" height="50" as="geometry"/>
                </mxCell>
                <mxCell id="20" value="Microservices" style="rounded=1;whiteSpace=wrap;html=1;labelBackgroundColor=none;strokeColor=#003366;strokeWidth=2;fontFamily=Verdana;fontSize=15;fontColor=#003366;fillColor=default;dashed=1;absoluteArcSize=1;arcSize=50;labelPosition=center;verticalLabelPosition=top;align=left;verticalAlign=bottom;fontStyle=1" parent="1" vertex="1">
                    <mxGeometry x="420" y="140" width="330" height="280" as="geometry"/>
                </mxCell>
                <mxCell id="26" value="" style="shape=cylinder3;whiteSpace=wrap;html=1;boundedLbl=1;backgroundOutline=1;size=7.085261855014551;rounded=1;shadow=0;fontSize=10;fontColor=#003366;fillColor=#CCCCCC;fontFamily=Verdana;fontStyle=0;fillStyle=auto;gradientColor=none;gradientDirection=north;" parent="1" vertex="1">
                    <mxGeometry x="690" y="260" width="30" height="40" as="geometry"/>
                </mxCell>
                <mxCell id="27" style="edgeStyle=none;html=1;exitX=1;exitY=0.5;exitDx=0;exitDy=0;entryX=0;entryY=0.5;entryDx=0;entryDy=0;fontFamily=Verdana;fontSize=13;endArrow=block;endFill=1;strokeWidth=2;fontColor=#006633;strokeColor=#B3B3B3;jumpSize=6;targetPerimeterSpacing=0;endSize=6;jumpStyle=none;entryPerimeter=0;startArrow=block;startFill=1;" parent="1" source="17" target="26" edge="1">
                    <mxGeometry relative="1" as="geometry">
                        <mxPoint x="210" y="290" as="sourcePoint"/>
                        <mxPoint x="250" y="290" as="targetPoint"/>
                    </mxGeometry>
                </mxCell>
                <mxCell id="28" value="" style="group" parent="1" vertex="1" connectable="0">
                    <mxGeometry x="480" y="251.5" width="160" height="57" as="geometry"/>
                </mxCell>
                <mxCell id="17" value="&lt;span style=&quot;white-space: pre;&quot;&gt;&#9;&lt;/span&gt;Service 2" style="rounded=1;whiteSpace=wrap;html=1;fontFamily=Verdana;fontSize=15;strokeWidth=1;fillColor=#003366;fontColor=#FFFFFF;strokeColor=none;align=left;" parent="28" vertex="1">
                    <mxGeometry width="160" height="57" as="geometry"/>
                </mxCell>
                <mxCell id="24" value="" style="shape=image;verticalLabelPosition=bottom;labelBackgroundColor=default;verticalAlign=top;aspect=fixed;imageAspect=0;image=data:image/png,iVBORw0KGgoAAAANSUhEUgAAAL8AAADbCAYAAAA8j0BKAAAAAXNSR0IArs4c6QAAAARnQU1BAACxjwv8YQUAAAAJcEhZcwAADsMAAA7DAcdvqGQAAA8BSURBVHhe7d0NbBzlmQfw95mxEyc0SQvhQ4WWtkC89pIPrxdEadSSo6deubZqdTTSCZAK14qDHqmTYAzZXWfs3ThfJR+iPahaQD2oVFEoEkrvWl3vyhWUI3i9CSHrtYPJlbZwCaG0SYiT2Dvz9hnPuzRNCPHHfszM+/9Jm8zzT+LEu/+sZ9Yz7woAXZH6GaqgJ3f5+Y6sv0kK8XkeF/DtPL6NSCleJxI7yKCn5r3Sv23pUmG7vx8qC+WvgvXPN846MdNcRVLexeM5XnpGg0QykYwNPKVmqBCUv4IsKQxjZ/PXuPRreLzIS8eJxLP8x9s6Y/mXVAJlhvJXSCYbXSzJ2cKbrV4yKTYJerhYV5eyFu5+U2VQJih/mWVyTZfyPvx63lzKt3Ldv4eElGl7hvmAFc2PqAymCOUvEyvbOtM0hu8SUiR5/ICXlhc/WENC0qpkvP8nKoIpQPmniJ/lKZ1rvomEXMfjxV5aWUTiPx2Dlncu6s+rCCYB5Z+CTK4xLoW5hf8HfEpF1VTk44FHcDwweSj/JGR2zbtY2qb7TH8T32p7H5J4m3+w7EMXPGgtebaoUhgHlH8CNm2/ZMbRhlnLeL8+weMsL/UH3v3aSyRXploHtqkIzgLlH6dMX+SLUtJWvsc+riK/+qU0qQ3HA2eH8p/FmmxTzCGxmTc/7SWBMMrHA48WZTFhxfe+pTI4Bcp/BtaL0YvqTGeNFOJrPBpeGjgHJVFnZKj/+zhf6HQo/ym+l22tf1MM38n3TDePs7002KSgAUlixepY/3+oCBjKf5Kx/XpB7i7OZV4SOtuENNtS8T2vqllrKD9L913ZJERxE98df6eiMBuVJB+c5ox03hvfd0hlWtK6/Nb26LlGg72aJH2TR9NLtfEH3h9KN+4rfEfX4wEty+/u1x80jt4lJaV4/KCXaivHu3ptna39z6lZG9qVP51r+qxwxBb+zKMqAs82UecsSy0c/D81h5425U/3NjZKw7ifP+G/VxGcboSPBx6aPiyTHYsHj6gstEJffne/3pxmW4LoDh7rvBTOwr2m+L5ES+Fx/lmqLHRCW37rV9fVGbP330aCMjye76UwQVmSxvJkPP+8mkMllOXvyjVfb0jpvl4/30tgCvh4WDzJRWlPxgqvqSwUQlX+9M6mK/ihWsO3r6oIymeY79cH7BlGxorm31FZoIWi/FY++gHzuLybn6Tu5XG6l0KFvC5JrEq1FB4L+vFAoMvvLQ3SdDN/Ehv4YbhQxVANJF6UQrZ1xgb+VyWBE9jyp3sj1wlDbOFPYaGKoPrcZ/7Hbdu4x7o6v9+LgiNw5c+8eOVHpGm7i0Dd4iXgA0e5St+2Dw+vs5b85rjKfC8w5d/40oJzjheL7fxk08Fjg5eCz/yOjweSnbHCv6nZ13xf/rGlQXY23ULeQlATW/IPaiMgSy36uvyZ3ujV0hhb8u+TXgIB4vDtR8ao2Z64Zs8BL/IXX5ZfLQ2yljdv5lvgjkvgr7zDD+H9c2aPrF12xdAJlfmCr4pVjSX/oGZeIUkJPy216Ivyu/v1a/qab5QkN/J4qZdCGHHh/suRcnlnfOBlFdVMzctf4yX/oDbGllo0aCS5KjZ0UGVVV7PyW7nGD9dJc7UU8us8BnVpEJiaP3ID19vTjc21WHq96uW38tFp5jHnDv6b0zz6ask/qJlBQ4qViXjhZ2quiqqWP0BL/kFtVHWpxaqUv7u3uYUM6b5eH6Ql/6A2xpZWcahhtdWy608qq4iKlr9nR+S8Yr3o1HRpEJgKd+l1R3RXcmmVipT/pCX/unic46UAk1IQwliRas3/XM1lU/bya7DkH9RG2ZdaLFv5e7LzIkUyN/EHdN9dHKASvOOBkWLKumbosMombcrlP2nJvzt5xNIgUA1vCSkyUz0emHT53f36A3T0VhLkXlgy10sBqipHJJYnY4Vfq3lCJlV+LPkHPjOppRYnVH7NlvKGYDnGbf52g1m/vn3h7qMqe1/jKv/a3fM/VBwpdvDvXs7jNC8F8KU3pJBdTmzgBxaNXVBzRu9bfnfJP3P2gdt50329/ryxECAYXpCS2jrj/TvUfJozlr+rt+lvDfddCLFfD8E1trQKmfZ9yUV7X/eivzit/NbOyMdMR2zlX/qSigCCzj0GWHuBnLnh9njfqBedUv50LnqjkM4jvIlTjSGMcvxV4EulrwLvlr+7r/lmEvKHvIkLSyDMXrPJudaKDb4xVn51yrG75iIWeQUdvND4amGx6V48/tz+uc9w8FEvBwi9S946d+5Bs+4LTTfwzk+7CgG0QIIWGryHjwVfQUcXG/xfYIkaALRi4E0dQFd4WRO0hfKDtlB+0BbKD9pC+UFbKD9oC+UHbaH8oC2UH7SF8oO2UH7QFsoP2kL5QVsoP2gL5QdtofygLZQftIXyg7ZQftAWyg/aQvlBWyg/aAvlB22h/KAtlB+0hfKDtlB+0BbKD9pC+UFbKD9oC+UHbaH8oC2UH7SF8oO2UH7QFsoP2kL5QVsoP2gL5QdtofygLZQftIXyg7ZQftAWyg/aQvlBWyg/aAvlB22h/KAtlB+0hfKDtlB+0BbKD9pC+UFbKD9oC+UHbaH8oC2UH7SF8oO2UH7QFsoP2kL5QVsoP2gL5QdtofygLZQftIXyg7ZQftAWyg/aQvlBWyg/aAvlB22h/KAtlB+0hfKDtlB+0BbKD9pC+UFbKD9oC+UHbaH8oC2UH7SF8oO2UH7QFsoP2kL5QVsoP2gL5QdtofygLZQftIXyg7ZQftAWyg/aQvlBWyg/aAvlB22h/KAtlB+0hfKDtlB+0BbKD9pC+UFbhiDxttoG0IohpPi12gbQikEkH1fbADo5aBRbBp7mjZe9GUAbGw2LhCMN4594GPEygNDLXiBnbhl7taezJd9LJL7Om447A4TYa2TaX7493jf67kudyVjhMRLiRt485CUAobPDJufa5KK9r7vDX73On2wtPE22OV8KekpFAGFwhJ/YO+zDFy62YoNvqExw9t66so1LDDK28OYCLwEIHN6Nlz+0bXOVdXV+v8redcbyu554QpgDlzd/g6RM8zjXSwECYTuR861kbDCr5tO8b/lLrJ2LPmg4J1bzb/4mj/VeCuBLvyOSHYmWgR8TCamy9zSu8pf0ZOdFimRu4j/0eRUB+MUw13mjLWdssOJ9vH12Eyp/Sbq36QY+VN7Em41eAlAz7rP7E7Y07rHi+d960fhMqvyu72Vb6w/Q0VtJ0BoecTwAtZCTgto6W/ufU/OETLr8JT25y8+3ZR0fEJP7TTLTSwEqiMQB/jFhtxQedc9Q8MKJm3L5S9J9Vzbxv2OzFPJzKgIot1FJ8sFpzkjnvfF9U/5mbNnKX5LJRf5BOrSRP/LHVQRQBvIZW5grrdb8kAqmrOzld1n56DTzmHMHf/RuHmd7KcCkDPKOzYrUVYV/V3PZVKT8JVau8cOmY6zlv+UWHiv6d0HIkHhbSrnaOXzRQ9aSZ4sqLauqFLK7L9JKZGwVUn5KRQBnUiRBjxg0klwVGzqosoqo2rOxlILW9DXfyAcsG3m81EsBTib/m3vS1hkfqMrFVVXfFdn40oJzjo2O3kskVvI4w0tBc68IMu5OxfLPqLkqarYfbu2MfMyUtEFI8VUVgX4O8y1jNxhbrWi+6lcS1vwgtDsX+Qw5tIX/JYtUBOHn8JPeo0bRTCSu2eN+w6omal5+l3vq9OBlkdt4M8P/pAu8FELqOYP36xPxQk7NNeOL8pesy35izqjRkOKj47t4nOalEBK/5bLdk4gVnjjbqcbV4qvyl/TsisyzbbqfN7/gJRBgwyTl+pkj72xcce3vj6nMF3xZ/pKuXPP1hpSbeXO+l0DAbONn+X9JxgqvqdlXfF1+l/Wr6+qM2ftvI0F8PCDO91LwuT6SRlsynn9ezb7k+/KXWNuj5xoN9mqSdCePdV4KPvP/Ukgr8urAw0uXCltlvhWY8pd0ZyPzDaLNfMR0vYqg9k5IfkymD9s9HYsHj6jM9wJX/pJMX9NX+D+Ae6rEZV4CtcCPwdMkzfZUfM+rKgqMwJbf5V5K+aYYvpM/C5w6XWVS0AAfhy1PteZ/rqLACXT5S6zsvLmGYaT4eMBdWgWXUlaS+2Ymjui2j1z43UqdalwtoSh/SSbXGJfS2Mqb13oJlNEo3/61rr6u674FL//Ri4ItVOV3uadOp/si/8if2HpBdImKYQp49+YXUhi8i7OnoKJQCF35S6xs60zDONZBUrbziFOnJ4GfSPbyPuSKRLzwMxWFSmjLX2Jlox81ydnAm0v5FvrPt0wOcfPT9gzzgVqcalwt2pQhk40uluS4xwMxL4H3YPMuzsPFurqUtXD3myoLLa2eCS3ecTV3Nt3Km2uEFBd6KSj/YxhGW6Ilv0vNoaflboB7KeXxYpGPBWQHjw1eqikpfy8NSqRaCo/55VTjatF6H9jqi17OxwM9/JDreCnl2KrG55w4vN5vpxpXCw4AWbov+jdCOO6p0zq8C43kR/1JfuDb/XqqcbWg/Io6dfqfiaiL63GuisNmBz/gbcnWwgtq1hrKf4q1u+d/qDhS7OB7ZjmPYbmU8g0pZJcTG/jBVFY1DhuU/wzSvY2NwjQ28VeBG1QURCOS5EPOSDFlXTPkLhMCJ0H5zyKda/qslGIr31HNKgqKbbZjf8u6au8+NcMpUP5xOOnU6S4e53ipbxUcIZevbh34hZrhDFD+CejZETmvWC86fXnqtDrVuHFf4TtBuITQD1D+SejubW4hQ7pv0P1pL6mpURL0aFEWE1Z871sqg3FA+acg0xf5opS0le/FWr0LzS+lSW2di/rzaoYJQPmnaNP2S2YcbZi1TEiR4HGWl1aWe6oxkVyZah3YpiKYBJS/TDK75l0sbXMtb97Mt0rdr3/ij7xuzqzRLcuuGDqhMpgklL/MundGryJn7NTpT3pJWbjfmPqRXVd/tw6nGlcLyl8B7qWU6l1o3PVGP+Klk0TiWSmMts5Y/iWVQJmg/BW0/vnGWSdmmqtISvdUieleOj4kaJ8UTjvv1/9URVBmKH8VpLNXXibIdi+l/ArfznafH+YvHevsI8c3W0t+c1xlUAEofxWNfX/AlN9Q5wud/KZ87rIgOZL0pDnNfDgsS4P4mxB/BmOGXL8q4w02AAAAAElFTkSuQmCC;" parent="28" vertex="1">
                    <mxGeometry x="10" y="11.75" width="29.23" height="33.51" as="geometry"/>
                </mxCell>
                <mxCell id="29" value="" style="shape=cylinder3;whiteSpace=wrap;html=1;boundedLbl=1;backgroundOutline=1;size=7.085261855014551;rounded=1;shadow=0;fontSize=10;fontColor=#003366;fillColor=#CCCCCC;fontFamily=Verdana;fontStyle=0;fillStyle=auto;gradientColor=none;gradientDirection=north;" parent="1" vertex="1">
                    <mxGeometry x="690" y="348.5" width="30" height="40" as="geometry"/>
                </mxCell>
                <mxCell id="30" style="edgeStyle=none;html=1;exitX=1;exitY=0.5;exitDx=0;exitDy=0;entryX=0;entryY=0.5;entryDx=0;entryDy=0;fontFamily=Verdana;fontSize=13;endArrow=block;endFill=1;strokeWidth=2;fontColor=#006633;strokeColor=#B3B3B3;jumpSize=6;targetPerimeterSpacing=0;endSize=6;jumpStyle=none;entryPerimeter=0;startArrow=block;startFill=1;" parent="1" source="32" target="29" edge="1">
                    <mxGeometry relative="1" as="geometry">
                        <mxPoint x="210" y="378.5" as="sourcePoint"/>
                        <mxPoint x="250" y="378.5" as="targetPoint"/>
                    </mxGeometry>
                </mxCell>
                <mxCell id="31" value="" style="group" parent="1" vertex="1" connectable="0">
                    <mxGeometry x="480" y="340" width="160" height="57" as="geometry"/>
                </mxCell>
                <mxCell id="32" value="&lt;span style=&quot;white-space: pre;&quot;&gt;&#9;&lt;/span&gt;Service 3" style="rounded=1;whiteSpace=wrap;html=1;fontFamily=Verdana;fontSize=15;strokeWidth=1;fillColor=#003366;fontColor=#FFFFFF;strokeColor=none;align=left;" parent="31" vertex="1">
                    <mxGeometry width="160" height="57" as="geometry"/>
                </mxCell>
                <mxCell id="33" value="" style="shape=image;verticalLabelPosition=bottom;labelBackgroundColor=default;verticalAlign=top;aspect=fixed;imageAspect=0;image=data:image/png,iVBORw0KGgoAAAANSUhEUgAAAL8AAADbCAYAAAA8j0BKAAAAAXNSR0IArs4c6QAAAARnQU1BAACxjwv8YQUAAAAJcEhZcwAADsMAAA7DAcdvqGQAAA8BSURBVHhe7d0NbBzlmQfw95mxEyc0SQvhQ4WWtkC89pIPrxdEadSSo6deubZqdTTSCZAK14qDHqmTYAzZXWfs3ThfJR+iPahaQD2oVFEoEkrvWl3vyhWUI3i9CSHrtYPJlbZwCaG0SYiT2Dvz9hnPuzRNCPHHfszM+/9Jm8zzT+LEu/+sZ9Yz7woAXZH6GaqgJ3f5+Y6sv0kK8XkeF/DtPL6NSCleJxI7yKCn5r3Sv23pUmG7vx8qC+WvgvXPN846MdNcRVLexeM5XnpGg0QykYwNPKVmqBCUv4IsKQxjZ/PXuPRreLzIS8eJxLP8x9s6Y/mXVAJlhvJXSCYbXSzJ2cKbrV4yKTYJerhYV5eyFu5+U2VQJih/mWVyTZfyPvx63lzKt3Ldv4eElGl7hvmAFc2PqAymCOUvEyvbOtM0hu8SUiR5/ICXlhc/WENC0qpkvP8nKoIpQPmniJ/lKZ1rvomEXMfjxV5aWUTiPx2Dlncu6s+rCCYB5Z+CTK4xLoW5hf8HfEpF1VTk44FHcDwweSj/JGR2zbtY2qb7TH8T32p7H5J4m3+w7EMXPGgtebaoUhgHlH8CNm2/ZMbRhlnLeL8+weMsL/UH3v3aSyRXploHtqkIzgLlH6dMX+SLUtJWvsc+riK/+qU0qQ3HA2eH8p/FmmxTzCGxmTc/7SWBMMrHA48WZTFhxfe+pTI4Bcp/BtaL0YvqTGeNFOJrPBpeGjgHJVFnZKj/+zhf6HQo/ym+l22tf1MM38n3TDePs7002KSgAUlixepY/3+oCBjKf5Kx/XpB7i7OZV4SOtuENNtS8T2vqllrKD9L913ZJERxE98df6eiMBuVJB+c5ox03hvfd0hlWtK6/Nb26LlGg72aJH2TR9NLtfEH3h9KN+4rfEfX4wEty+/u1x80jt4lJaV4/KCXaivHu3ptna39z6lZG9qVP51r+qxwxBb+zKMqAs82UecsSy0c/D81h5425U/3NjZKw7ifP+G/VxGcboSPBx6aPiyTHYsHj6gstEJffne/3pxmW4LoDh7rvBTOwr2m+L5ES+Fx/lmqLHRCW37rV9fVGbP330aCMjye76UwQVmSxvJkPP+8mkMllOXvyjVfb0jpvl4/30tgCvh4WDzJRWlPxgqvqSwUQlX+9M6mK/ihWsO3r6oIymeY79cH7BlGxorm31FZoIWi/FY++gHzuLybn6Tu5XG6l0KFvC5JrEq1FB4L+vFAoMvvLQ3SdDN/Ehv4YbhQxVANJF6UQrZ1xgb+VyWBE9jyp3sj1wlDbOFPYaGKoPrcZ/7Hbdu4x7o6v9+LgiNw5c+8eOVHpGm7i0Dd4iXgA0e5St+2Dw+vs5b85rjKfC8w5d/40oJzjheL7fxk08Fjg5eCz/yOjweSnbHCv6nZ13xf/rGlQXY23ULeQlATW/IPaiMgSy36uvyZ3ujV0hhb8u+TXgIB4vDtR8ao2Z64Zs8BL/IXX5ZfLQ2yljdv5lvgjkvgr7zDD+H9c2aPrF12xdAJlfmCr4pVjSX/oGZeIUkJPy216Ivyu/v1a/qab5QkN/J4qZdCGHHh/suRcnlnfOBlFdVMzctf4yX/oDbGllo0aCS5KjZ0UGVVV7PyW7nGD9dJc7UU8us8BnVpEJiaP3ID19vTjc21WHq96uW38tFp5jHnDv6b0zz6ask/qJlBQ4qViXjhZ2quiqqWP0BL/kFtVHWpxaqUv7u3uYUM6b5eH6Ql/6A2xpZWcahhtdWy608qq4iKlr9nR+S8Yr3o1HRpEJgKd+l1R3RXcmmVipT/pCX/unic46UAk1IQwliRas3/XM1lU/bya7DkH9RG2ZdaLFv5e7LzIkUyN/EHdN9dHKASvOOBkWLKumbosMombcrlP2nJvzt5xNIgUA1vCSkyUz0emHT53f36A3T0VhLkXlgy10sBqipHJJYnY4Vfq3lCJlV+LPkHPjOppRYnVH7NlvKGYDnGbf52g1m/vn3h7qMqe1/jKv/a3fM/VBwpdvDvXs7jNC8F8KU3pJBdTmzgBxaNXVBzRu9bfnfJP3P2gdt50329/ryxECAYXpCS2jrj/TvUfJozlr+rt+lvDfddCLFfD8E1trQKmfZ9yUV7X/eivzit/NbOyMdMR2zlX/qSigCCzj0GWHuBnLnh9njfqBedUv50LnqjkM4jvIlTjSGMcvxV4EulrwLvlr+7r/lmEvKHvIkLSyDMXrPJudaKDb4xVn51yrG75iIWeQUdvND4amGx6V48/tz+uc9w8FEvBwi9S946d+5Bs+4LTTfwzk+7CgG0QIIWGryHjwVfQUcXG/xfYIkaALRi4E0dQFd4WRO0hfKDtlB+0BbKD9pC+UFbKD9oC+UHbaH8oC2UH7SF8oO2UH7QFsoP2kL5QVsoP2gL5QdtofygLZQftIXyg7ZQftAWyg/aQvlBWyg/aAvlB22h/KAtlB+0hfKDtlB+0BbKD9pC+UFbKD9oC+UHbaH8oC2UH7SF8oO2UH7QFsoP2kL5QVsoP2gL5QdtofygLZQftIXyg7ZQftAWyg/aQvlBWyg/aAvlB22h/KAtlB+0hfKDtlB+0BbKD9pC+UFbKD9oC+UHbaH8oC2UH7SF8oO2UH7QFsoP2kL5QVsoP2gL5QdtofygLZQftIXyg7ZQftAWyg/aQvlBWyg/aAvlB22h/KAtlB+0hfKDtlB+0BbKD9pC+UFbKD9oC+UHbaH8oC2UH7SF8oO2UH7QFsoP2kL5QVsoP2gL5QdtofygLZQftIXyg7ZQftAWyg/aQvlBWyg/aAvlB22h/KAtlB+0hfKDtlB+0BbKD9pC+UFbhiDxttoG0IohpPi12gbQikEkH1fbADo5aBRbBp7mjZe9GUAbGw2LhCMN4594GPEygNDLXiBnbhl7taezJd9LJL7Om447A4TYa2TaX7493jf67kudyVjhMRLiRt485CUAobPDJufa5KK9r7vDX73On2wtPE22OV8KekpFAGFwhJ/YO+zDFy62YoNvqExw9t66so1LDDK28OYCLwEIHN6Nlz+0bXOVdXV+v8redcbyu554QpgDlzd/g6RM8zjXSwECYTuR861kbDCr5tO8b/lLrJ2LPmg4J1bzb/4mj/VeCuBLvyOSHYmWgR8TCamy9zSu8pf0ZOdFimRu4j/0eRUB+MUw13mjLWdssOJ9vH12Eyp/Sbq36QY+VN7Em41eAlAz7rP7E7Y07rHi+d960fhMqvyu72Vb6w/Q0VtJ0BoecTwAtZCTgto6W/ufU/OETLr8JT25y8+3ZR0fEJP7TTLTSwEqiMQB/jFhtxQedc9Q8MKJm3L5S9J9Vzbxv2OzFPJzKgIot1FJ8sFpzkjnvfF9U/5mbNnKX5LJRf5BOrSRP/LHVQRQBvIZW5grrdb8kAqmrOzld1n56DTzmHMHf/RuHmd7KcCkDPKOzYrUVYV/V3PZVKT8JVau8cOmY6zlv+UWHiv6d0HIkHhbSrnaOXzRQ9aSZ4sqLauqFLK7L9JKZGwVUn5KRQBnUiRBjxg0klwVGzqosoqo2rOxlILW9DXfyAcsG3m81EsBTib/m3vS1hkfqMrFVVXfFdn40oJzjo2O3kskVvI4w0tBc68IMu5OxfLPqLkqarYfbu2MfMyUtEFI8VUVgX4O8y1jNxhbrWi+6lcS1vwgtDsX+Qw5tIX/JYtUBOHn8JPeo0bRTCSu2eN+w6omal5+l3vq9OBlkdt4M8P/pAu8FELqOYP36xPxQk7NNeOL8pesy35izqjRkOKj47t4nOalEBK/5bLdk4gVnjjbqcbV4qvyl/TsisyzbbqfN7/gJRBgwyTl+pkj72xcce3vj6nMF3xZ/pKuXPP1hpSbeXO+l0DAbONn+X9JxgqvqdlXfF1+l/Wr6+qM2ftvI0F8PCDO91LwuT6SRlsynn9ezb7k+/KXWNuj5xoN9mqSdCePdV4KPvP/Ukgr8urAw0uXCltlvhWY8pd0ZyPzDaLNfMR0vYqg9k5IfkymD9s9HYsHj6jM9wJX/pJMX9NX+D+Ae6rEZV4CtcCPwdMkzfZUfM+rKgqMwJbf5V5K+aYYvpM/C5w6XWVS0AAfhy1PteZ/rqLACXT5S6zsvLmGYaT4eMBdWgWXUlaS+2Ymjui2j1z43UqdalwtoSh/SSbXGJfS2Mqb13oJlNEo3/61rr6u674FL//Ri4ItVOV3uadOp/si/8if2HpBdImKYQp49+YXUhi8i7OnoKJQCF35S6xs60zDONZBUrbziFOnJ4GfSPbyPuSKRLzwMxWFSmjLX2Jlox81ydnAm0v5FvrPt0wOcfPT9gzzgVqcalwt2pQhk40uluS4xwMxL4H3YPMuzsPFurqUtXD3myoLLa2eCS3ecTV3Nt3Km2uEFBd6KSj/YxhGW6Ilv0vNoaflboB7KeXxYpGPBWQHjw1eqikpfy8NSqRaCo/55VTjatF6H9jqi17OxwM9/JDreCnl2KrG55w4vN5vpxpXCw4AWbov+jdCOO6p0zq8C43kR/1JfuDb/XqqcbWg/Io6dfqfiaiL63GuisNmBz/gbcnWwgtq1hrKf4q1u+d/qDhS7OB7ZjmPYbmU8g0pZJcTG/jBVFY1DhuU/wzSvY2NwjQ28VeBG1QURCOS5EPOSDFlXTPkLhMCJ0H5zyKda/qslGIr31HNKgqKbbZjf8u6au8+NcMpUP5xOOnU6S4e53ipbxUcIZevbh34hZrhDFD+CejZETmvWC86fXnqtDrVuHFf4TtBuITQD1D+SejubW4hQ7pv0P1pL6mpURL0aFEWE1Z871sqg3FA+acg0xf5opS0le/FWr0LzS+lSW2di/rzaoYJQPmnaNP2S2YcbZi1TEiR4HGWl1aWe6oxkVyZah3YpiKYBJS/TDK75l0sbXMtb97Mt0rdr3/ij7xuzqzRLcuuGDqhMpgklL/MundGryJn7NTpT3pJWbjfmPqRXVd/tw6nGlcLyl8B7qWU6l1o3PVGP+Klk0TiWSmMts5Y/iWVQJmg/BW0/vnGWSdmmqtISvdUieleOj4kaJ8UTjvv1/9URVBmKH8VpLNXXibIdi+l/ArfznafH+YvHevsI8c3W0t+c1xlUAEofxWNfX/AlN9Q5wud/KZ87rIgOZL0pDnNfDgsS4P4mxB/BmOGXL8q4w02AAAAAElFTkSuQmCC;" parent="31" vertex="1">
                    <mxGeometry x="10" y="11.75" width="29.23" height="33.51" as="geometry"/>
                </mxCell>
                <mxCell id="34" value="" style="shape=cylinder3;whiteSpace=wrap;html=1;boundedLbl=1;backgroundOutline=1;size=7.085261855014551;rounded=1;shadow=0;fontSize=10;fontColor=#003366;fillColor=#CCCCCC;fontFamily=Verdana;fontStyle=0;fillStyle=auto;gradientColor=none;gradientDirection=north;" parent="1" vertex="1">
                    <mxGeometry x="690" y="168.5" width="30" height="40" as="geometry"/>
                </mxCell>
                <mxCell id="35" style="edgeStyle=none;html=1;exitX=1;exitY=0.5;exitDx=0;exitDy=0;entryX=0;entryY=0.5;entryDx=0;entryDy=0;fontFamily=Verdana;fontSize=13;endArrow=block;endFill=1;strokeWidth=2;fontColor=#006633;strokeColor=#B3B3B3;jumpSize=6;targetPerimeterSpacing=0;endSize=6;jumpStyle=none;entryPerimeter=0;startArrow=block;startFill=1;" parent="1" source="37" target="34" edge="1">
                    <mxGeometry relative="1" as="geometry">
                        <mxPoint x="210" y="198.5" as="sourcePoint"/>
                        <mxPoint x="250" y="198.5" as="targetPoint"/>
                    </mxGeometry>
                </mxCell>
                <mxCell id="36" value="" style="group" parent="1" vertex="1" connectable="0">
                    <mxGeometry x="480" y="160" width="160" height="57" as="geometry"/>
                </mxCell>
                <mxCell id="37" value="&lt;span style=&quot;white-space: pre;&quot;&gt;&#9;&lt;/span&gt;Service 1" style="rounded=1;whiteSpace=wrap;html=1;fontFamily=Verdana;fontSize=15;strokeWidth=1;fillColor=#003366;fontColor=#FFFFFF;strokeColor=none;align=left;" parent="36" vertex="1">
                    <mxGeometry width="160" height="57" as="geometry"/>
                </mxCell>
                <mxCell id="38" value="" style="shape=image;verticalLabelPosition=bottom;labelBackgroundColor=default;verticalAlign=top;aspect=fixed;imageAspect=0;image=data:image/png,iVBORw0KGgoAAAANSUhEUgAAAL8AAADbCAYAAAA8j0BKAAAAAXNSR0IArs4c6QAAAARnQU1BAACxjwv8YQUAAAAJcEhZcwAADsMAAA7DAcdvqGQAAA8BSURBVHhe7d0NbBzlmQfw95mxEyc0SQvhQ4WWtkC89pIPrxdEadSSo6deubZqdTTSCZAK14qDHqmTYAzZXWfs3ThfJR+iPahaQD2oVFEoEkrvWl3vyhWUI3i9CSHrtYPJlbZwCaG0SYiT2Dvz9hnPuzRNCPHHfszM+/9Jm8zzT+LEu/+sZ9Yz7woAXZH6GaqgJ3f5+Y6sv0kK8XkeF/DtPL6NSCleJxI7yKCn5r3Sv23pUmG7vx8qC+WvgvXPN846MdNcRVLexeM5XnpGg0QykYwNPKVmqBCUv4IsKQxjZ/PXuPRreLzIS8eJxLP8x9s6Y/mXVAJlhvJXSCYbXSzJ2cKbrV4yKTYJerhYV5eyFu5+U2VQJih/mWVyTZfyPvx63lzKt3Ldv4eElGl7hvmAFc2PqAymCOUvEyvbOtM0hu8SUiR5/ICXlhc/WENC0qpkvP8nKoIpQPmniJ/lKZ1rvomEXMfjxV5aWUTiPx2Dlncu6s+rCCYB5Z+CTK4xLoW5hf8HfEpF1VTk44FHcDwweSj/JGR2zbtY2qb7TH8T32p7H5J4m3+w7EMXPGgtebaoUhgHlH8CNm2/ZMbRhlnLeL8+weMsL/UH3v3aSyRXploHtqkIzgLlH6dMX+SLUtJWvsc+riK/+qU0qQ3HA2eH8p/FmmxTzCGxmTc/7SWBMMrHA48WZTFhxfe+pTI4Bcp/BtaL0YvqTGeNFOJrPBpeGjgHJVFnZKj/+zhf6HQo/ym+l22tf1MM38n3TDePs7002KSgAUlixepY/3+oCBjKf5Kx/XpB7i7OZV4SOtuENNtS8T2vqllrKD9L913ZJERxE98df6eiMBuVJB+c5ox03hvfd0hlWtK6/Nb26LlGg72aJH2TR9NLtfEH3h9KN+4rfEfX4wEty+/u1x80jt4lJaV4/KCXaivHu3ptna39z6lZG9qVP51r+qxwxBb+zKMqAs82UecsSy0c/D81h5425U/3NjZKw7ifP+G/VxGcboSPBx6aPiyTHYsHj6gstEJffne/3pxmW4LoDh7rvBTOwr2m+L5ES+Fx/lmqLHRCW37rV9fVGbP330aCMjye76UwQVmSxvJkPP+8mkMllOXvyjVfb0jpvl4/30tgCvh4WDzJRWlPxgqvqSwUQlX+9M6mK/ihWsO3r6oIymeY79cH7BlGxorm31FZoIWi/FY++gHzuLybn6Tu5XG6l0KFvC5JrEq1FB4L+vFAoMvvLQ3SdDN/Ehv4YbhQxVANJF6UQrZ1xgb+VyWBE9jyp3sj1wlDbOFPYaGKoPrcZ/7Hbdu4x7o6v9+LgiNw5c+8eOVHpGm7i0Dd4iXgA0e5St+2Dw+vs5b85rjKfC8w5d/40oJzjheL7fxk08Fjg5eCz/yOjweSnbHCv6nZ13xf/rGlQXY23ULeQlATW/IPaiMgSy36uvyZ3ujV0hhb8u+TXgIB4vDtR8ao2Z64Zs8BL/IXX5ZfLQ2yljdv5lvgjkvgr7zDD+H9c2aPrF12xdAJlfmCr4pVjSX/oGZeIUkJPy216Ivyu/v1a/qab5QkN/J4qZdCGHHh/suRcnlnfOBlFdVMzctf4yX/oDbGllo0aCS5KjZ0UGVVV7PyW7nGD9dJc7UU8us8BnVpEJiaP3ID19vTjc21WHq96uW38tFp5jHnDv6b0zz6ask/qJlBQ4qViXjhZ2quiqqWP0BL/kFtVHWpxaqUv7u3uYUM6b5eH6Ql/6A2xpZWcahhtdWy608qq4iKlr9nR+S8Yr3o1HRpEJgKd+l1R3RXcmmVipT/pCX/unic46UAk1IQwliRas3/XM1lU/bya7DkH9RG2ZdaLFv5e7LzIkUyN/EHdN9dHKASvOOBkWLKumbosMombcrlP2nJvzt5xNIgUA1vCSkyUz0emHT53f36A3T0VhLkXlgy10sBqipHJJYnY4Vfq3lCJlV+LPkHPjOppRYnVH7NlvKGYDnGbf52g1m/vn3h7qMqe1/jKv/a3fM/VBwpdvDvXs7jNC8F8KU3pJBdTmzgBxaNXVBzRu9bfnfJP3P2gdt50329/ryxECAYXpCS2jrj/TvUfJozlr+rt+lvDfddCLFfD8E1trQKmfZ9yUV7X/eivzit/NbOyMdMR2zlX/qSigCCzj0GWHuBnLnh9njfqBedUv50LnqjkM4jvIlTjSGMcvxV4EulrwLvlr+7r/lmEvKHvIkLSyDMXrPJudaKDb4xVn51yrG75iIWeQUdvND4amGx6V48/tz+uc9w8FEvBwi9S946d+5Bs+4LTTfwzk+7CgG0QIIWGryHjwVfQUcXG/xfYIkaALRi4E0dQFd4WRO0hfKDtlB+0BbKD9pC+UFbKD9oC+UHbaH8oC2UH7SF8oO2UH7QFsoP2kL5QVsoP2gL5QdtofygLZQftIXyg7ZQftAWyg/aQvlBWyg/aAvlB22h/KAtlB+0hfKDtlB+0BbKD9pC+UFbKD9oC+UHbaH8oC2UH7SF8oO2UH7QFsoP2kL5QVsoP2gL5QdtofygLZQftIXyg7ZQftAWyg/aQvlBWyg/aAvlB22h/KAtlB+0hfKDtlB+0BbKD9pC+UFbKD9oC+UHbaH8oC2UH7SF8oO2UH7QFsoP2kL5QVsoP2gL5QdtofygLZQftIXyg7ZQftAWyg/aQvlBWyg/aAvlB22h/KAtlB+0hfKDtlB+0BbKD9pC+UFbKD9oC+UHbaH8oC2UH7SF8oO2UH7QFsoP2kL5QVsoP2gL5QdtofygLZQftIXyg7ZQftAWyg/aQvlBWyg/aAvlB22h/KAtlB+0hfKDtlB+0BbKD9pC+UFbhiDxttoG0IohpPi12gbQikEkH1fbADo5aBRbBp7mjZe9GUAbGw2LhCMN4594GPEygNDLXiBnbhl7taezJd9LJL7Om447A4TYa2TaX7493jf67kudyVjhMRLiRt485CUAobPDJufa5KK9r7vDX73On2wtPE22OV8KekpFAGFwhJ/YO+zDFy62YoNvqExw9t66so1LDDK28OYCLwEIHN6Nlz+0bXOVdXV+v8redcbyu554QpgDlzd/g6RM8zjXSwECYTuR861kbDCr5tO8b/lLrJ2LPmg4J1bzb/4mj/VeCuBLvyOSHYmWgR8TCamy9zSu8pf0ZOdFimRu4j/0eRUB+MUw13mjLWdssOJ9vH12Eyp/Sbq36QY+VN7Em41eAlAz7rP7E7Y07rHi+d960fhMqvyu72Vb6w/Q0VtJ0BoecTwAtZCTgto6W/ufU/OETLr8JT25y8+3ZR0fEJP7TTLTSwEqiMQB/jFhtxQedc9Q8MKJm3L5S9J9Vzbxv2OzFPJzKgIot1FJ8sFpzkjnvfF9U/5mbNnKX5LJRf5BOrSRP/LHVQRQBvIZW5grrdb8kAqmrOzld1n56DTzmHMHf/RuHmd7KcCkDPKOzYrUVYV/V3PZVKT8JVau8cOmY6zlv+UWHiv6d0HIkHhbSrnaOXzRQ9aSZ4sqLauqFLK7L9JKZGwVUn5KRQBnUiRBjxg0klwVGzqosoqo2rOxlILW9DXfyAcsG3m81EsBTib/m3vS1hkfqMrFVVXfFdn40oJzjo2O3kskVvI4w0tBc68IMu5OxfLPqLkqarYfbu2MfMyUtEFI8VUVgX4O8y1jNxhbrWi+6lcS1vwgtDsX+Qw5tIX/JYtUBOHn8JPeo0bRTCSu2eN+w6omal5+l3vq9OBlkdt4M8P/pAu8FELqOYP36xPxQk7NNeOL8pesy35izqjRkOKj47t4nOalEBK/5bLdk4gVnjjbqcbV4qvyl/TsisyzbbqfN7/gJRBgwyTl+pkj72xcce3vj6nMF3xZ/pKuXPP1hpSbeXO+l0DAbONn+X9JxgqvqdlXfF1+l/Wr6+qM2ftvI0F8PCDO91LwuT6SRlsynn9ezb7k+/KXWNuj5xoN9mqSdCePdV4KPvP/Ukgr8urAw0uXCltlvhWY8pd0ZyPzDaLNfMR0vYqg9k5IfkymD9s9HYsHj6jM9wJX/pJMX9NX+D+Ae6rEZV4CtcCPwdMkzfZUfM+rKgqMwJbf5V5K+aYYvpM/C5w6XWVS0AAfhy1PteZ/rqLACXT5S6zsvLmGYaT4eMBdWgWXUlaS+2Ymjui2j1z43UqdalwtoSh/SSbXGJfS2Mqb13oJlNEo3/61rr6u674FL//Ri4ItVOV3uadOp/si/8if2HpBdImKYQp49+YXUhi8i7OnoKJQCF35S6xs60zDONZBUrbziFOnJ4GfSPbyPuSKRLzwMxWFSmjLX2Jlox81ydnAm0v5FvrPt0wOcfPT9gzzgVqcalwt2pQhk40uluS4xwMxL4H3YPMuzsPFurqUtXD3myoLLa2eCS3ecTV3Nt3Km2uEFBd6KSj/YxhGW6Ilv0vNoaflboB7KeXxYpGPBWQHjw1eqikpfy8NSqRaCo/55VTjatF6H9jqi17OxwM9/JDreCnl2KrG55w4vN5vpxpXCw4AWbov+jdCOO6p0zq8C43kR/1JfuDb/XqqcbWg/Io6dfqfiaiL63GuisNmBz/gbcnWwgtq1hrKf4q1u+d/qDhS7OB7ZjmPYbmU8g0pZJcTG/jBVFY1DhuU/wzSvY2NwjQ28VeBG1QURCOS5EPOSDFlXTPkLhMCJ0H5zyKda/qslGIr31HNKgqKbbZjf8u6au8+NcMpUP5xOOnU6S4e53ipbxUcIZevbh34hZrhDFD+CejZETmvWC86fXnqtDrVuHFf4TtBuITQD1D+SejubW4hQ7pv0P1pL6mpURL0aFEWE1Z871sqg3FA+acg0xf5opS0le/FWr0LzS+lSW2di/rzaoYJQPmnaNP2S2YcbZi1TEiR4HGWl1aWe6oxkVyZah3YpiKYBJS/TDK75l0sbXMtb97Mt0rdr3/ij7xuzqzRLcuuGDqhMpgklL/MundGryJn7NTpT3pJWbjfmPqRXVd/tw6nGlcLyl8B7qWU6l1o3PVGP+Klk0TiWSmMts5Y/iWVQJmg/BW0/vnGWSdmmqtISvdUieleOj4kaJ8UTjvv1/9URVBmKH8VpLNXXibIdi+l/ArfznafH+YvHevsI8c3W0t+c1xlUAEofxWNfX/AlN9Q5wud/KZ87rIgOZL0pDnNfDgsS4P4mxB/BmOGXL8q4w02AAAAAElFTkSuQmCC;" parent="36" vertex="1">
                    <mxGeometry x="10" y="11.75" width="29.23" height="33.51" as="geometry"/>
                </mxCell>
                <mxCell id="40" style="edgeStyle=none;html=1;exitX=1;exitY=0.25;exitDx=0;exitDy=0;entryX=0;entryY=0.5;entryDx=0;entryDy=0;fontFamily=Verdana;fontSize=13;endArrow=block;endFill=1;strokeWidth=3;fontColor=#006633;strokeColor=#B3B3B3;jumpSize=6;targetPerimeterSpacing=0;endSize=8;jumpStyle=none;" parent="1" source="14" target="37" edge="1">
                    <mxGeometry relative="1" as="geometry">
                        <mxPoint x="370" y="178.32999999999998" as="sourcePoint"/>
                        <mxPoint x="410" y="178.32999999999998" as="targetPoint"/>
                    </mxGeometry>
                </mxCell>
                <mxCell id="41" style="edgeStyle=none;html=1;exitX=1;exitY=0.5;exitDx=0;exitDy=0;entryX=0;entryY=0.5;entryDx=0;entryDy=0;fontFamily=Verdana;fontSize=13;endArrow=block;endFill=1;strokeWidth=3;fontColor=#006633;strokeColor=#B3B3B3;jumpSize=6;targetPerimeterSpacing=0;endSize=8;jumpStyle=none;" parent="1" source="14" target="17" edge="1">
                    <mxGeometry relative="1" as="geometry">
                        <mxPoint x="220" y="300" as="sourcePoint"/>
                        <mxPoint x="260" y="300" as="targetPoint"/>
                    </mxGeometry>
                </mxCell>
                <mxCell id="42" style="edgeStyle=none;html=1;exitX=1;exitY=0.75;exitDx=0;exitDy=0;entryX=0;entryY=0.5;entryDx=0;entryDy=0;fontFamily=Verdana;fontSize=13;endArrow=block;endFill=1;strokeWidth=3;fontColor=#006633;strokeColor=#B3B3B3;jumpSize=6;targetPerimeterSpacing=0;endSize=8;jumpStyle=none;" parent="1" source="14" target="32" edge="1">
                    <mxGeometry relative="1" as="geometry">
                        <mxPoint x="230" y="310" as="sourcePoint"/>
                        <mxPoint x="270" y="310" as="targetPoint"/>
                    </mxGeometry>
                </mxCell>
                <mxCell id="45" style="edgeStyle=none;html=1;exitX=0.5;exitY=1;exitDx=0;exitDy=0;entryX=0.5;entryY=0;entryDx=0;entryDy=0;fontFamily=Verdana;fontSize=13;endArrow=block;endFill=1;strokeWidth=2;fontColor=#006633;strokeColor=#B3B3B3;jumpSize=6;targetPerimeterSpacing=0;endSize=4;jumpStyle=none;startArrow=block;startFill=1;startSize=4;" parent="1" source="37" target="17" edge="1">
                    <mxGeometry relative="1" as="geometry">
                        <mxPoint x="660" y="208.5" as="sourcePoint"/>
                        <mxPoint x="710" y="208.5" as="targetPoint"/>
                    </mxGeometry>
                </mxCell>
                <mxCell id="46" style="edgeStyle=none;html=1;exitX=0.5;exitY=1;exitDx=0;exitDy=0;entryX=0.5;entryY=0;entryDx=0;entryDy=0;fontFamily=Verdana;fontSize=13;endArrow=block;endFill=1;strokeWidth=2;fontColor=#006633;strokeColor=#B3B3B3;jumpSize=6;targetPerimeterSpacing=0;endSize=4;jumpStyle=none;startArrow=block;startFill=1;startSize=4;" parent="1" source="17" target="32" edge="1">
                    <mxGeometry relative="1" as="geometry">
                        <mxPoint x="570" y="227" as="sourcePoint"/>
                        <mxPoint x="570" y="261.5" as="targetPoint"/>
                    </mxGeometry>
                </mxCell>
                <mxCell id="47" style="edgeStyle=none;html=1;exitX=0.75;exitY=1;exitDx=0;exitDy=0;entryX=0.75;entryY=0;entryDx=0;entryDy=0;fontFamily=Verdana;fontSize=13;endArrow=block;endFill=1;strokeWidth=2;fontColor=#006633;strokeColor=#B3B3B3;jumpSize=8;targetPerimeterSpacing=0;endSize=4;jumpStyle=none;startArrow=block;startFill=1;startSize=4;shadow=0;curved=1;" parent="1" source="37" target="32" edge="1">
                    <mxGeometry relative="1" as="geometry">
                        <mxPoint x="610" y="230" as="sourcePoint"/>
                        <mxPoint x="610" y="264.5" as="targetPoint"/>
                        <Array as="points">
                            <mxPoint x="630" y="280"/>
                        </Array>
                    </mxGeometry>
                </mxCell>
            </root>
        </mxGraphModel>
    </diagram>
</mxfile>